<svg xmlns="http://www.w3.org/2000/svg" xml:space="preserve" width="48" height="48" viewBox="0 0 12.7 12.7"><path d="M0-.033h12.7V12.7H0z" style="fill:#1b1b1b;fill-opacity:1;stroke-width:.413981;stroke-dasharray:none"/><path d="M-8.286 3.498a6.115 9.478 0 0 0-3.072-8.221 6.115 9.478 0 0 0-3.071 8.221 6.115 9.478 0 0 0 3.071 8.222 6.115 9.478 0 0 0 3.072-8.222" style="opacity:.75;fill:#f67216;fill-opacity:1;stroke-width:.137053" transform="translate(10.466 5.017)scale(.36242)"/><path d="M-4.587 6.136a6.115 9.478 30 0 0 1.45-8.656 6.115 9.478 30 0 0-6.77 5.584 6.115 9.478 30 0 0-1.45 8.656 6.115 9.478 30 0 0 6.77-5.584" style="opacity:.5;fill:#f67216;fill-opacity:1;stroke-width:.137053" transform="translate(10.466 5.017)scale(.36242)"/><path d="M-2.702 10.27a6.115 9.478 60 0 0 5.584-6.772 6.115 9.478 60 0 0-8.656 1.45 6.115 9.478 60 0 0-5.584 6.772 6.115 9.478 60 0 0 8.656-1.45" style="opacity:.25;fill:#f67216;fill-opacity:1;stroke-width:.137053" transform="translate(10.466 5.017)scale(.36242)"/><path d="M-18.128 6.136A9.478 6.115 60 0 1-19.58-2.52a9.478 6.115 60 0 1 6.77 5.584 9.478 6.115 60 0 1 1.451 8.656 9.478 6.115 60 0 1-6.77-5.584" style="opacity:.5;fill:#f67216;fill-opacity:1;stroke-width:.137053" transform="translate(10.466 5.017)scale(.36242)"/><path d="M-20.013 10.27a9.478 6.115 30 0 1-5.585-6.772 9.478 6.115 30 0 1 8.656 1.45 9.478 6.115 30 0 1 5.584 6.772 9.478 6.115 30 0 1-8.655-1.45" style="opacity:.25;fill:#f67216;fill-opacity:1;stroke-width:.137053" transform="translate(10.466 5.017)scale(.36242)"/></svg>